<svg xmlns="http://www.w3.org/2000/svg" width="200" height="200" viewBox="0 0 200 200">
  <defs>
    <linearGradient id="linearGradient1">
      <stop style="stop-color:#ba5749;stop-opacity:1" offset="0" />
      <stop style="stop-color:#5139ca;stop-opacity:1" offset="0.7" />
      <stop style="stop-color:#ebe8f9;stop-opacity:1" offset="1" />
    </linearGradient>
    <linearGradient href="#linearGradient1" id="linearGradient2" x1="25.063339" y1="162.48186" x2="168.93558" y2="31.517067" gradientUnits="userSpaceOnUse" gradientTransform="matrix(0.89999997,0,0,0.89999997,9.9999997,9.9999997)" />
  </defs>
  <path style="fill-opacity:0;stroke:url(#linearGradient2);stroke-width:8" d="M 180.85219,100 A 80.852181,80.852181 0 0 1 100,180.85219 80.852181,80.852181 0 0 1 19.14782,100 80.852181,80.852181 0 0 1 100,19.14782 80.852181,80.852181 0 0 1 180.85219,100 Z" />
  <g>
    <path fill="#ffffff" d="m 51.15521,54 c 0,4.594209 0,9.18842 0,13.782629 14.614175,0 29.228349,0 43.842523,0 -8.511551,20.897708 -17.023102,41.795411 -25.534652,62.693121 -5.249237,-4.34077 -10.498473,-8.68154 -15.747709,-13.02231 -2.905125,3.51303 -5.810249,7.02605 -8.715372,10.53907 10.034209,8.29741 20.068418,16.59481 30.102627,24.89222 11.55402,-28.36737 23.108038,-56.734736 34.662053,-85.102101 14.92044,0 29.84088,0 44.76132,0 0,-4.594209 0,-9.18842 0,-13.782629 -34.45693,0 -68.91386,0 -103.37079,0 z" style="stroke-width:0.689138" />
    <path fill="#39cac4" d="m 130.40622,91.709748 c -10.04156,-0.101115 -19.82949,5.815378 -24.4072,14.753372 -4.74668,8.8263 -4.07129,20.215 1.68502,28.41855 5.59077,8.31717 15.9782,13.03482 25.91982,11.77281 8.79989,-0.96415 16.92891,-6.48393 21.071,-14.30766 -4.30444,-1.75342 -8.60889,-3.50685 -12.91333,-5.26028 -3.16299,4.73103 -9.43184,7.05764 -14.91404,5.50422 -5.69862,-1.43041 -10.04972,-6.85497 -10.21168,-12.72776 -0.34441,-5.92916 3.62265,-11.76192 9.26723,-13.61423 5.58347,-2.02744 12.30723,0.10693 15.69678,4.98496 0.4258,0.78038 0.82847,1.41728 1.69468,0.68775 3.90183,-1.6986 7.80367,-3.39719 11.7055,-5.09578 -4.44494,-9.004758 -14.14425,-15.065447 -24.18621,-15.112934 -0.13585,-0.002 -0.27171,-0.003 -0.40757,-0.003 z" style="stroke-width:0.689138" />
  </g>
</svg>
